<svg width="16" height="16" viewBox="0 0 16 16" fill="none" xmlns="http://www.w3.org/2000/svg">
<g clip-path="url(#clip0_220_32)">
<path d="M2.72884 8.1648C2.72735 8.21623 2.73158 8.29282 2.7621 8.37876C2.8139 8.52496 2.91092 8.61164 2.95762 8.64826C2.96136 8.55436 2.97082 8.4282 2.99561 8.28074C2.99561 8.28074 3.02375 8.13516 3.05663 8.00153C3.23435 7.27882 3.83338 6.73782 4.54438 6.56198C4.05718 6.52735 3.45528 6.78478 3.06037 7.06237C2.78738 7.25454 2.1328 7.7512 2.14974 8.52509C2.16418 9.1859 2.66259 9.62315 2.77854 9.71992C2.70531 9.60385 2.55461 9.33036 2.54241 8.94915C2.5302 8.56793 2.66321 8.28548 2.72884 8.16492V8.1648Z" fill="#001C36"/>
<g filter="url(#filter0_d_220_32)">
<path d="M3.01282 9.72147C3.11905 9.71374 3.30561 9.68933 3.50699 9.59979C3.80838 9.46591 3.99207 9.25843 4.081 9.14161C4.04637 9.1319 3.99793 9.11546 3.94388 9.08731C3.78447 9.00437 3.69866 8.88307 3.65955 8.82628C3.51833 8.62166 3.38669 8.0169 3.65358 7.43218C3.89904 6.89417 4.3581 6.64348 4.52834 6.56128C4.26457 6.62342 3.81336 6.77698 3.47798 7.17588C3.37199 7.30191 3.06999 7.66009 3.00684 8.16161C2.98804 8.31056 2.97945 8.56026 2.90796 8.5711C2.86375 8.57782 2.81456 8.4899 2.80098 8.46586C2.71492 8.3123 2.76138 8.16385 2.74394 8.15987C2.71243 8.15264 2.44667 8.62415 2.55016 9.17735C2.59599 9.42257 2.69998 9.60664 2.77744 9.71985C2.83759 9.72495 2.9183 9.72819 3.01295 9.72134L3.01282 9.72147Z" fill="#0092B3"/>
</g>
<path d="M13.5961 6.56068C13.4934 6.33995 13.2633 5.92727 12.8078 5.58572C12.3773 5.26297 11.9629 5.16681 11.6848 5.1054C10.8369 4.91818 10.1415 5.09668 9.79968 5.18849C8.96061 5.41407 8.40157 5.82688 8.05777 6.08572C7.8627 6.23271 7.53273 6.55981 6.87279 7.21402C6.32409 7.75812 6.20937 7.88878 5.66004 8.42541C5.66004 8.42541 5.35697 8.72137 4.58829 9.40448C4.30902 9.65261 4.10473 9.82887 3.78772 9.98794C3.50384 10.1304 3.24674 10.2004 3.06836 10.2374C3.31076 10.4483 3.77401 10.7874 4.43968 10.9242C5.15767 11.0718 5.73577 10.9068 6.06823 10.8079C6.45575 10.6925 6.70376 10.5526 7.16153 10.2903C7.37728 10.1666 7.54108 10.0639 7.70314 9.9543C7.70314 9.9543 7.4134 10.1155 6.96547 10.2499C6.25284 10.4638 5.93221 10.3631 5.77352 10.285C5.71086 10.2541 5.54581 10.1729 5.54893 10.0713C5.55329 9.93026 5.87852 9.83609 6.01417 9.79673C6.41863 9.67952 6.68358 9.71066 6.94766 9.69621C7.52937 9.66432 7.95513 9.4193 8.36196 9.18512C8.81562 8.92404 9.27725 8.53564 9.22444 8.43861C9.19853 8.39103 8.9935 8.43998 8.58455 8.54C8.01405 8.67939 7.97905 8.72374 7.7496 8.74828C7.39135 8.78664 6.86171 8.74454 6.80129 8.53938C6.75558 8.38405 6.99499 8.19023 7.02999 8.1627C7.17735 8.04661 7.33418 8.01621 7.65543 7.98059C8.13712 7.92715 8.40219 7.92055 8.40219 7.92055C9.40281 7.89601 9.39322 7.90498 9.5772 7.88829C10.3764 7.81579 10.5559 7.64501 10.6338 7.54399C10.6686 7.49865 10.8009 7.31417 10.7416 7.16096C10.6954 7.0415 10.5687 7.03365 10.3798 6.92503C10.3418 6.90311 9.88214 6.63305 9.88401 6.34843C9.88575 6.08684 10.2765 5.89925 10.3575 5.86038C10.9139 5.59332 11.5104 5.78901 11.8798 5.91008C12.0291 5.95904 12.5887 6.16046 13.1326 6.68649C13.4975 7.03926 13.7147 7.40274 13.839 7.65174C13.8383 7.42354 13.8074 7.01385 13.5963 6.56056L13.5961 6.56068ZM9.61931 6.98183C9.60996 7.08896 9.4575 7.19073 9.2496 7.21564C9.19492 7.22399 9.02638 7.24242 8.86569 7.14065C8.81076 7.1059 8.64347 6.9999 8.65306 6.83858C8.66141 6.69882 8.79781 6.59668 8.91216 6.56629C9.05702 6.5278 9.17947 6.60079 9.33044 6.69098C9.4783 6.77917 9.62927 6.86923 9.61943 6.98183H9.61931Z" fill="#001C36"/>
<path d="M11.8152 7.40857C11.8258 7.40434 11.8364 7.40011 11.8468 7.396C11.5619 7.50185 11.3041 7.62042 11.0752 7.73972C11.2831 7.63673 11.5333 7.52153 11.8152 7.4087V7.40857Z" fill="#6699FF"/>
<g filter="url(#filter1_d_220_32)">
<path d="M13.1336 6.68653C12.5896 6.1605 12.0302 5.95908 11.8807 5.91013C11.5114 5.78905 10.9148 5.59336 10.3584 5.86042C10.2776 5.89929 9.88667 6.08688 9.88493 6.34847C9.88306 6.6331 10.3427 6.90315 10.3807 6.92507C10.5697 7.03369 10.6963 7.04154 10.7425 7.161C10.8018 7.31421 10.6696 7.49869 10.6347 7.54403C10.5569 7.64505 10.3773 7.81583 9.57812 7.88833C9.39427 7.90502 9.40374 7.89593 8.40311 7.92059C8.40311 7.92059 8.13804 7.92707 7.65635 7.98063C7.33498 8.01625 7.17827 8.04677 7.03091 8.16274C6.99591 8.19027 6.7565 8.38409 6.80221 8.53942C6.86263 8.74458 7.39227 8.78668 7.75052 8.74832C7.97997 8.72378 8.01497 8.67943 8.58547 8.54005C8.99442 8.44015 9.19932 8.39107 9.22536 8.43865C9.27817 8.53556 8.81654 8.92408 8.36288 9.18516C7.95605 9.41922 7.53017 9.66424 6.94858 9.69625C6.6845 9.7107 6.41955 9.67968 6.01509 9.79677C5.87944 9.83614 5.55408 9.93031 5.54985 10.0713C5.54673 10.173 5.71178 10.2543 5.77444 10.2851C5.93313 10.3633 6.25376 10.4638 6.96639 10.2499C7.41432 10.1155 7.70406 9.95435 7.70406 9.95435C8.01908 9.74134 8.32788 9.50218 9.00077 9.03195C9.82588 8.45534 10.2241 8.21219 10.4622 8.07119C10.5442 8.02261 10.7614 7.89505 11.0754 7.73947C11.3045 7.62014 11.5622 7.50156 11.8472 7.39568C12.2326 7.24296 12.5771 7.13858 12.982 7.16561C13.3949 7.19313 13.5817 7.33825 13.6598 7.41087C13.7513 7.49595 13.8069 7.58663 13.8398 7.65166C13.7155 7.40265 13.4983 7.03917 13.1334 6.68641L13.1336 6.68653Z" fill="#0092B2"/>
</g>
<g filter="url(#filter2_d_220_32)">
<path d="M9.33096 6.69107C9.18002 6.60103 9.0576 6.52793 8.91276 6.56641C8.79856 6.5968 8.66206 6.6988 8.65372 6.83865C8.64413 6.99993 8.81138 7.10579 8.86631 7.14066C9.02696 7.24241 9.19546 7.22398 9.25014 7.21563C9.45799 7.19073 9.61043 7.08885 9.61977 6.98187C9.62961 6.86929 9.47866 6.77925 9.33084 6.69107H9.33096Z" fill="#0092B2"/>
</g>
<path d="M12.5155 9.99887C12.595 9.89164 12.7132 9.73223 12.7388 9.50121C12.7452 9.44404 12.7772 9.10044 12.5754 8.81973C12.5109 8.72994 12.4381 8.66816 12.4495 8.57526C12.4605 8.48683 12.5428 8.41273 12.6244 8.38695C12.7949 8.33315 12.9585 8.49207 12.9821 8.5156C13.17 8.70366 13.1391 8.98026 13.163 8.97864C13.1905 8.9769 13.301 8.60278 13.1235 8.29069C12.9979 8.06963 12.8109 8.02616 12.7741 7.79265C12.7697 7.7655 12.7543 7.666 12.7879 7.59165C12.7482 7.59053 12.706 7.59053 12.661 7.59177C12.1433 7.60684 11.7063 7.78232 11.3936 7.95592C11.5249 7.98942 11.7991 8.07847 12.0466 8.32269C12.1255 8.40053 12.3937 8.6729 12.4484 9.10455C12.4888 9.42275 12.3932 9.66958 12.3189 9.86162C12.2261 10.1015 12.1044 10.2793 12.0133 10.3939C12.0317 10.3902 12.0507 10.3859 12.0703 10.3816C12.1879 10.3186 12.3651 10.2016 12.5154 9.99874L12.5155 9.99887Z" fill="#001C36"/>
<g filter="url(#filter3_d_220_32)">
<path d="M13.6454 9.21355C13.7251 9.03708 13.9169 8.6129 13.7323 8.18224C13.7033 8.11462 13.5929 7.87887 13.3351 7.72394C13.2615 7.67973 13.1061 7.60027 12.7878 7.59155C12.754 7.6659 12.7696 7.76541 12.774 7.79256C12.8109 8.02607 12.9978 8.06953 13.1234 8.29059C13.3009 8.60269 13.1904 8.9768 13.1629 8.97855C13.139 8.98004 13.1699 8.70344 12.9819 8.51551C12.9584 8.49197 12.7948 8.33294 12.6243 8.38686C12.5427 8.41264 12.4604 8.48674 12.4494 8.57516C12.438 8.66795 12.5109 8.72984 12.5753 8.81964C12.7771 9.10035 12.7451 9.44395 12.7387 9.50111C12.7131 9.73213 12.5949 9.89155 12.5154 9.99877C12.365 10.2016 12.1879 10.3186 12.0703 10.3816C12.3173 10.3253 12.6517 10.2111 12.9837 9.96851C13.1777 9.82666 13.4661 9.61046 13.6455 9.21368L13.6454 9.21355Z" fill="#0092B2"/>
</g>
</g>
<defs>
<filter id="filter0_d_220_32" x="2.42672" y="6.51145" width="2.1016" height="3.26371" filterUnits="userSpaceOnUse" color-interpolation-filters="sRGB">
<feFlood flood-opacity="0" result="BackgroundImageFix"/>
<feColorMatrix in="SourceAlpha" type="matrix" values="0 0 0 0 0 0 0 0 0 0 0 0 0 0 0 0 0 0 127 0" result="hardAlpha"/>
<feOffset dx="-0.0498256"/>
<feGaussianBlur stdDeviation="0.0249128"/>
<feComposite in2="hardAlpha" operator="out"/>
<feColorMatrix type="matrix" values="0 0 0 0 0 0 0 0 0 0 0 0 0 0 0 0 0 0 0.25 0"/>
<feBlend mode="normal" in2="BackgroundImageFix" result="effect1_dropShadow_220_32"/>
<feBlend mode="normal" in="SourceGraphic" in2="effect1_dropShadow_220_32" result="shape"/>
</filter>
<filter id="filter1_d_220_32" x="5.45015" y="5.67698" width="8.38969" height="4.75126" filterUnits="userSpaceOnUse" color-interpolation-filters="sRGB">
<feFlood flood-opacity="0" result="BackgroundImageFix"/>
<feColorMatrix in="SourceAlpha" type="matrix" values="0 0 0 0 0 0 0 0 0 0 0 0 0 0 0 0 0 0 127 0" result="hardAlpha"/>
<feOffset dx="-0.0498256"/>
<feGaussianBlur stdDeviation="0.0249128"/>
<feComposite in2="hardAlpha" operator="out"/>
<feColorMatrix type="matrix" values="0 0 0 0 0 0 0 0 0 0 0 0 0 0 0 0 0 0 0.25 0"/>
<feBlend mode="normal" in2="BackgroundImageFix" result="effect1_dropShadow_220_32"/>
<feBlend mode="normal" in="SourceGraphic" in2="effect1_dropShadow_220_32" result="shape"/>
</filter>
<filter id="filter2_d_220_32" x="8.55367" y="6.50608" width="1.06645" height="0.766155" filterUnits="userSpaceOnUse" color-interpolation-filters="sRGB">
<feFlood flood-opacity="0" result="BackgroundImageFix"/>
<feColorMatrix in="SourceAlpha" type="matrix" values="0 0 0 0 0 0 0 0 0 0 0 0 0 0 0 0 0 0 127 0" result="hardAlpha"/>
<feOffset dx="-0.0498256"/>
<feGaussianBlur stdDeviation="0.0249128"/>
<feComposite in2="hardAlpha" operator="out"/>
<feColorMatrix type="matrix" values="0 0 0 0 0 0 0 0 0 0 0 0 0 0 0 0 0 0 0.25 0"/>
<feBlend mode="normal" in2="BackgroundImageFix" result="effect1_dropShadow_220_32"/>
<feBlend mode="normal" in="SourceGraphic" in2="effect1_dropShadow_220_32" result="shape"/>
</filter>
<filter id="filter3_d_220_32" x="11.9707" y="7.54173" width="1.83891" height="2.88969" filterUnits="userSpaceOnUse" color-interpolation-filters="sRGB">
<feFlood flood-opacity="0" result="BackgroundImageFix"/>
<feColorMatrix in="SourceAlpha" type="matrix" values="0 0 0 0 0 0 0 0 0 0 0 0 0 0 0 0 0 0 127 0" result="hardAlpha"/>
<feOffset dx="-0.0498256"/>
<feGaussianBlur stdDeviation="0.0249128"/>
<feComposite in2="hardAlpha" operator="out"/>
<feColorMatrix type="matrix" values="0 0 0 0 0 0 0 0 0 0 0 0 0 0 0 0 0 0 0.25 0"/>
<feBlend mode="normal" in2="BackgroundImageFix" result="effect1_dropShadow_220_32"/>
<feBlend mode="normal" in="SourceGraphic" in2="effect1_dropShadow_220_32" result="shape"/>
</filter>
<clipPath id="clip0_220_32">
<rect width="11.6912" height="5.95989" fill="white" transform="translate(2.14941 5.02319)"/>
</clipPath>
</defs>
</svg>
