<svg width="391" height="199" viewBox="0 0 391 199" fill="none" xmlns="http://www.w3.org/2000/svg">
<g clip-path="url(#clip0_164_3173)">
<path d="M19.353 104.911C19.3031 106.629 19.4445 109.187 20.4635 112.057C22.1937 116.94 25.4338 119.834 26.9935 121.057C27.1182 117.921 27.4343 113.708 28.262 108.783C28.262 108.783 29.202 103.921 30.3 99.4585C36.2352 75.3228 56.2409 57.2554 79.9858 51.3826C63.715 50.2264 43.6136 58.8234 30.4248 68.0942C21.3078 74.5118 -0.552926 91.0986 0.0127251 116.944C0.495192 139.012 17.1403 153.615 21.0125 156.847C18.5669 152.971 13.5343 143.837 13.1267 131.106C12.7191 118.374 17.1611 108.941 19.353 104.915V104.911Z" fill="#001C36"/>
<g filter="url(#filter0_d_164_3173)">
<path d="M28.8734 156.893C32.4212 156.635 38.6517 155.82 45.3771 152.829C55.4424 148.358 61.5772 141.429 64.5469 137.527C63.3906 137.203 61.7727 136.654 59.9676 135.714C54.6438 132.944 51.7781 128.893 50.4721 126.996C45.7556 120.163 41.3593 99.966 50.2725 80.4386C58.4703 62.471 73.8011 54.0986 79.4867 51.3535C70.6775 53.4289 55.6087 58.5572 44.408 71.8791C40.8685 76.0881 30.7825 88.0499 28.6738 104.799C28.0457 109.773 27.7587 118.112 25.3714 118.474C23.8948 118.699 22.252 115.763 21.7986 114.96C18.9246 109.832 20.476 104.874 19.8937 104.741C18.8414 104.499 9.96568 120.246 13.422 138.721C14.9526 146.911 18.4255 153.058 21.0125 156.839C23.0214 157.009 25.7166 157.117 28.8776 156.888L28.8734 156.893Z" fill="#0092B3"/>
</g>
<path d="M382.264 51.3366C378.832 43.9665 371.15 30.1871 355.94 18.7827C341.566 8.00626 327.728 4.79537 318.445 2.7449C290.133 -3.50635 266.913 2.45375 255.5 5.51907C227.483 13.0513 208.817 26.8348 197.337 35.4776C190.824 40.3854 179.806 51.3074 157.771 73.1515C139.45 91.3187 135.619 95.6817 117.277 113.599C117.277 113.599 107.158 123.482 81.4913 146.291C72.1663 154.576 65.3453 160.461 54.7601 165.772C45.2813 170.53 36.6967 172.868 30.7407 174.103C38.8345 181.144 54.3026 192.466 76.5293 197.033C100.503 201.961 119.806 196.454 130.907 193.152C143.846 189.296 152.127 184.626 167.412 175.866C174.616 171.736 180.085 168.309 185.496 164.649C185.496 164.649 175.822 170.031 160.865 174.519C137.071 181.66 126.365 178.3 121.066 175.692C118.974 174.66 113.463 171.949 113.567 168.555C113.713 163.846 124.572 160.702 129.102 159.388C142.607 155.474 151.453 156.514 160.271 156.031C179.694 154.967 193.91 146.786 207.494 138.966C222.642 130.249 238.056 117.28 236.292 114.04C235.427 112.451 228.581 114.086 214.927 117.426C195.878 122.08 194.709 123.561 187.048 124.38C175.086 125.661 157.401 124.255 155.384 117.405C153.857 112.219 161.851 105.747 163.02 104.828C167.94 100.951 173.177 99.9365 183.903 98.747C199.987 96.9627 208.838 96.7423 208.838 96.7423C242.248 95.9229 241.928 96.2224 248.071 95.6651C274.757 93.2444 280.75 87.5422 283.35 84.1691C284.514 82.6552 288.931 76.4954 286.952 71.3796C285.408 67.391 281.179 67.129 274.869 63.5022C273.6 62.7701 258.253 53.753 258.315 44.2493C258.374 35.515 271.421 29.2513 274.125 27.9537C292.704 19.0364 312.622 25.5705 324.954 29.6132C329.941 31.2477 348.624 37.9731 366.787 55.5373C378.97 67.3161 386.223 79.4526 390.374 87.7668C390.349 80.1472 389.318 66.4676 382.268 51.3324L382.264 51.3366ZM249.477 65.3987C249.165 68.9756 244.074 72.3737 237.133 73.2055C235.307 73.4842 229.679 74.0997 224.314 70.7017C222.48 69.5413 216.894 66.0018 217.214 60.6157C217.493 55.9491 222.047 52.5386 225.865 51.5237C230.703 50.2385 234.791 52.6758 239.832 55.6871C244.769 58.6318 249.81 61.6388 249.481 65.3987H249.477Z" fill="#001C36"/>
<path d="M322.774 79.6442C323.128 79.5028 323.481 79.3614 323.831 79.2241C314.315 82.7594 305.705 86.719 298.06 90.7035C305.002 87.2638 313.358 83.4166 322.774 79.6484V79.6442Z" fill="#6699FF"/>
<g filter="url(#filter1_d_164_3173)">
<path d="M366.783 55.5417C348.62 37.9775 329.941 31.2521 324.95 29.6176C312.618 25.5748 292.699 19.0408 274.12 27.9581C271.421 29.2557 258.369 35.5194 258.311 44.2537C258.249 53.7574 273.596 62.7745 274.865 63.5065C281.174 67.1333 285.404 67.3954 286.947 71.384C288.927 76.4998 284.51 82.6596 283.345 84.1735C280.75 87.5466 274.752 93.2488 248.067 95.6695C241.928 96.2268 242.244 95.9232 208.833 96.7467C208.833 96.7467 199.982 96.963 183.899 98.7514C173.168 99.9409 167.936 100.96 163.015 104.832C161.847 105.751 153.853 112.223 155.379 117.409C157.396 124.26 175.081 125.665 187.043 124.384C194.704 123.565 195.873 122.084 214.922 117.43C228.577 114.095 235.419 112.456 236.288 114.045C238.052 117.281 222.638 130.253 207.49 138.971C193.906 146.786 179.686 154.967 160.266 156.036C151.449 156.518 142.602 155.483 129.097 159.392C124.568 160.707 113.704 163.851 113.563 168.559C113.459 171.953 118.97 174.669 121.062 175.696C126.36 178.308 137.066 181.665 160.861 174.523C175.818 170.036 185.492 164.654 185.492 164.654C196.01 157.541 206.321 149.556 228.789 133.855C256.34 114.602 269.637 106.483 277.585 101.775C280.326 100.153 287.575 95.8941 298.061 90.6992C305.709 86.7148 314.315 82.7552 323.831 79.2199C336.7 74.1208 348.204 70.6354 361.721 71.5379C375.509 72.4571 381.748 77.3025 384.356 79.7273C387.408 82.5681 389.268 85.5959 390.366 87.767C386.215 79.4528 378.961 67.3163 366.779 55.5376L366.783 55.5417Z" fill="#0092B2"/>
</g>
<g filter="url(#filter2_d_164_3173)">
<path d="M239.828 55.6874C234.787 52.6803 230.698 50.2389 225.861 51.5241C222.047 52.5389 217.489 55.9453 217.21 60.616C216.89 66.0022 222.476 69.5375 224.31 70.702C229.675 74.1001 235.303 73.4845 237.128 73.2058C244.07 72.374 249.161 68.9718 249.473 65.3991C249.801 61.6392 244.761 58.6321 239.824 55.6874H239.828Z" fill="#0092B2"/>
</g>
<path d="M346.174 166.151C348.828 162.57 352.775 157.246 353.632 149.531C353.844 147.622 354.913 136.146 348.175 126.772C346.021 123.773 343.587 121.71 343.97 118.607C344.336 115.654 347.085 113.179 349.81 112.319C355.504 110.522 360.969 115.829 361.755 116.615C368.031 122.895 367 132.133 367.798 132.079C368.717 132.021 372.407 119.526 366.48 109.104C362.283 101.721 356.04 100.269 354.809 92.471C354.663 91.5643 354.148 88.2411 355.271 85.758C353.944 85.7206 352.534 85.7206 351.032 85.7622C333.743 86.2655 319.148 92.1257 308.704 97.9236C313.092 99.0425 322.247 102.016 330.515 110.172C333.148 112.772 342.107 121.868 343.933 136.284C345.28 146.91 342.09 155.154 339.607 161.567C336.508 169.578 332.445 175.517 329.4 179.344C330.016 179.219 330.652 179.077 331.305 178.932C335.232 176.827 341.15 172.922 346.17 166.147L346.174 166.151Z" fill="#001C36"/>
<g filter="url(#filter3_d_164_3173)">
<path d="M383.911 139.931C386.573 134.038 392.978 119.872 386.814 105.489C385.845 103.231 382.16 95.3574 373.55 90.1834C371.092 88.7069 365.902 86.0533 355.271 85.7622C354.144 88.2452 354.663 91.5684 354.809 92.4751C356.044 100.274 362.283 101.725 366.48 109.108C372.407 119.531 368.717 132.025 367.798 132.083C367 132.133 368.031 122.895 361.755 116.619C360.969 115.833 355.504 110.522 349.81 112.323C347.085 113.184 344.336 115.658 343.97 118.611C343.588 121.71 346.025 123.777 348.175 126.776C354.913 136.151 353.844 147.626 353.632 149.535C352.775 157.25 348.828 162.574 346.175 166.155C341.15 172.93 335.236 176.836 331.31 178.94C339.557 177.06 350.725 173.246 361.813 165.144C368.293 160.407 377.926 153.187 383.915 139.935L383.911 139.931Z" fill="#0092B2"/>
</g>
</g>
<defs>
<filter id="filter0_d_164_3173" x="11.9419" y="51.0107" width="67.5448" height="106.351" filterUnits="userSpaceOnUse" color-interpolation-filters="sRGB">
<feFlood flood-opacity="0" result="BackgroundImageFix"/>
<feColorMatrix in="SourceAlpha" type="matrix" values="0 0 0 0 0 0 0 0 0 0 0 0 0 0 0 0 0 0 127 0" result="hardAlpha"/>
<feOffset dx="-0.342766"/>
<feGaussianBlur stdDeviation="0.171383"/>
<feComposite in2="hardAlpha" operator="out"/>
<feColorMatrix type="matrix" values="0 0 0 0 0 0 0 0 0 0 0 0 0 0 0 0 0 0 0.25 0"/>
<feBlend mode="normal" in2="BackgroundImageFix" result="effect1_dropShadow_164_3173"/>
<feBlend mode="normal" in="SourceGraphic" in2="effect1_dropShadow_164_3173" result="shape"/>
</filter>
<filter id="filter1_d_164_3173" x="112.876" y="23.1538" width="277.49" height="156" filterUnits="userSpaceOnUse" color-interpolation-filters="sRGB">
<feFlood flood-opacity="0" result="BackgroundImageFix"/>
<feColorMatrix in="SourceAlpha" type="matrix" values="0 0 0 0 0 0 0 0 0 0 0 0 0 0 0 0 0 0 127 0" result="hardAlpha"/>
<feOffset dx="-0.342766"/>
<feGaussianBlur stdDeviation="0.171383"/>
<feComposite in2="hardAlpha" operator="out"/>
<feColorMatrix type="matrix" values="0 0 0 0 0 0 0 0 0 0 0 0 0 0 0 0 0 0 0.25 0"/>
<feBlend mode="normal" in2="BackgroundImageFix" result="effect1_dropShadow_164_3173"/>
<feBlend mode="normal" in="SourceGraphic" in2="effect1_dropShadow_164_3173" result="shape"/>
</filter>
<filter id="filter2_d_164_3173" x="216.511" y="50.8306" width="32.9769" height="22.9482" filterUnits="userSpaceOnUse" color-interpolation-filters="sRGB">
<feFlood flood-opacity="0" result="BackgroundImageFix"/>
<feColorMatrix in="SourceAlpha" type="matrix" values="0 0 0 0 0 0 0 0 0 0 0 0 0 0 0 0 0 0 127 0" result="hardAlpha"/>
<feOffset dx="-0.342766"/>
<feGaussianBlur stdDeviation="0.171383"/>
<feComposite in2="hardAlpha" operator="out"/>
<feColorMatrix type="matrix" values="0 0 0 0 0 0 0 0 0 0 0 0 0 0 0 0 0 0 0.25 0"/>
<feBlend mode="normal" in2="BackgroundImageFix" result="effect1_dropShadow_164_3173"/>
<feBlend mode="normal" in="SourceGraphic" in2="effect1_dropShadow_164_3173" result="shape"/>
</filter>
<filter id="filter3_d_164_3173" x="330.624" y="85.4194" width="58.7851" height="93.8638" filterUnits="userSpaceOnUse" color-interpolation-filters="sRGB">
<feFlood flood-opacity="0" result="BackgroundImageFix"/>
<feColorMatrix in="SourceAlpha" type="matrix" values="0 0 0 0 0 0 0 0 0 0 0 0 0 0 0 0 0 0 127 0" result="hardAlpha"/>
<feOffset dx="-0.342766"/>
<feGaussianBlur stdDeviation="0.171383"/>
<feComposite in2="hardAlpha" operator="out"/>
<feColorMatrix type="matrix" values="0 0 0 0 0 0 0 0 0 0 0 0 0 0 0 0 0 0 0.25 0"/>
<feBlend mode="normal" in2="BackgroundImageFix" result="effect1_dropShadow_164_3173"/>
<feBlend mode="normal" in="SourceGraphic" in2="effect1_dropShadow_164_3173" result="shape"/>
</filter>
<clipPath id="clip0_164_3173">
<rect width="390.37" height="199" fill="white"/>
</clipPath>
</defs>
</svg>
